<?xml version="1.0" encoding="utf-8"?>
<!-- Generator: Adobe Illustrator 22.1.0, SVG Export Plug-In . SVG Version: 6.00 Build 0)  -->
<svg version="1.1" id="Calque_1" xmlns="http://www.w3.org/2000/svg" xmlns:xlink="http://www.w3.org/1999/xlink" x="0px" y="0px"
	 viewBox="0 0 518.7 518.7" style="enable-background:new 0 0 518.7 518.7;" xml:space="preserve">
<style type="text/css">
	.st0{fill:#C01213;}
</style>
<g>
	<path class="st0" d="M308.5,439.3c-0.5,6.1-0.6,12.7-0.2,19.7c0.3,7,0.5,13.9,0.6,20.7c0.1,6.8-0.2,13.1-0.8,19.1
		c-0.6,6-2.3,11-4.8,15.2c-6.1,1.1-13.1,2-20.8,2.5c-7.7,0.6-15.7,0.8-24,0.8c-8.2,0-16.3-0.3-24.1-0.8c-7.8-0.6-14.7-1.4-20.7-2.5
		c-2.6-3.9-4.2-8.8-4.8-14.6c-0.6-5.9-0.9-12.2-0.8-18.9c0.1-6.7,0.3-13.5,0.7-20.4c0.4-6.9,0.3-13.4-0.4-19.4
		c-18.4-5.6-35.8-13.9-52.3-24.8s-30.8-24-43.2-39.2c-12.3-15.2-22.1-32.5-29.4-51.9c-7.3-19.4-11-40.4-11.1-63.1
		c0-13.5,1.3-26.4,3.9-38.6c2.6-12.2,6.2-23.7,10.8-34.6c4.6-10.9,10-21,16.2-30.4c6.2-9.4,12.9-17.9,20-25.6
		c7.7-8.5,16.8-16.7,27.1-24.3c10.3-7.7,21.8-14.2,34.5-19.7c12.7-5.5,26.4-9.6,41.1-12.3c14.8-2.7,30.4-3.5,46.8-2.4
		c10.2,0.8,20.2,2.7,30.1,5.6c9.9,2.9,19.4,6.4,28.4,10.4c3.5,1.6,6.7,3.1,9.4,4.5c2.7,1.4,5.4,2.7,7.9,4.1c2.5,1.4,5,2.9,7.5,4.5
		c2.5,1.6,5.4,3.5,8.6,5.6c10.3,6.8,20.2,14.9,29.5,24.3c9.4,9.4,17.7,20.1,24.9,31.9s13.3,24.9,18,39.2c4.8,14.3,7.7,29.6,8.8,46.1
		c1.6,23.7-1,46.1-7.7,67c-6.8,21-16.5,39.7-29.3,56.3c-12.7,16.5-27.8,30.5-45.1,42C346.4,426.6,328,434.6,308.5,439.3z
		 M113.7,275.3c0.2,2.1-0.2,4.4-1,7c-0.8,2.6-1.5,5-2.1,7.4c-0.6,2.3-0.6,4.4-0.2,6.2c0.4,1.8,1.9,2.9,4.5,3.4
		c0-2.6,0.4-4.8,1.2-6.5c0.8-1.8,1.7-3.4,2.8-5c1-1.5,2.2-2.9,3.4-4.2c1.2-1.3,2.3-2.7,3.3-4.4c-0.8,0.2-1.2-0.1-1.2-0.8
		s0-1.5,0-2.3c0-0.8-0.1-1.5-0.4-2.1c-0.2-0.6-1-0.6-2.3-0.1c0,1.3-0.4,2.3-1.1,2.9c-0.7,0.6-1.5,1-2.4,1.1
		c-0.9,0.1-1.8-0.1-2.7-0.5C114.6,276.9,114,276.2,113.7,275.3z M114.9,311.3c-0.5-0.6-1.2-0.7-2.2-0.1c-1,0.6-1.5,1-1.7,1.3
		c-0.5,1.3-0.4,2.1,0.2,2.3c0.6,0.2,1.3,0.2,2.1-0.1c0.7-0.3,1.3-0.8,1.8-1.6C115.6,312.4,115.5,311.8,114.9,311.3z M121.7,339.1
		c0.6,0.2,1.1,0.4,1.5,0.8c0.3,0.4,0.7,0.8,1.2,1.2c0.5,0.4,1,0.7,1.6,1c0.6,0.2,1.4,0.2,2.5-0.1c0-2.6,0.4-4.6,1.2-6.2
		c0.8-1.5,1.7-3,2.7-4.5c-3.4-0.5-6.2-0.2-8.3,0.7C121.8,333.1,121,335.4,121.7,339.1z M127,356.5c0.5,1.9,1.2,3.7,2.3,5.2
		c1,1.5,2.1,2.9,3,4.2c-0.2-4.5,0.7-7.9,2.5-10.3c1.9-2.3,3.7-4.7,5.4-7.1c-1.6-1.3-3.8-1.7-6.5-1.2c-0.3,2.4-1,4.5-1.9,6.2
		C130.9,355.2,129.3,356.2,127,356.5z M136.4,376.6c2.6-0.5,4.6-0.5,6,0c1.5,0.5,2.6,1.3,3.5,2.4c0.9,1.1,1.7,2.3,2.4,3.6
		c0.7,1.3,1.7,2.4,2.8,3.4c0-1.8,0.2-3.2,0.7-4.4c0.5-1.1,1-2.2,1.5-3.1c0.5-1,0.8-2,1-3c0.2-1-0.1-2.5-0.7-4.2
		c-3.9-0.2-7.4,0-10.6,0.5C139.7,372.3,137.6,373.9,136.4,376.6z M149.7,165.9c-0.3-1.1-1-2.2-1.9-3.3c-1-1-2.1-1.9-3.3-2.7
		c-1.2-0.7-2.5-1.2-3.8-1.5c-1.3-0.2-2.3,0-3.1,0.6c2.3,0.8,4.2,2,5.7,3.5C144.9,164.2,147,165.3,149.7,165.9z M140.3,251.1
		c0.2-0.6,0.6-1,1.3-1.2c0.7-0.2,1.5-0.3,2.2-0.5c0.7-0.2,1.3-0.5,1.7-1c0.4-0.5,0.4-1.4,0.1-2.7c-0.5-1.5-1.5-2.5-2.9-3
		c-1.5-0.6-2.7-1.3-3.6-2.3c0.2,0.8,0.2,1.8,0.1,2.9c-0.1,1.1-0.2,2.2-0.2,3.3c-0.1,1.1-0.1,2,0,2.9
		C139.1,250.4,139.5,250.9,140.3,251.1z M140.3,300.4c0.6,0,1.1,0.2,1.5,0.6c0.3,0.4,0.6,0.8,0.8,1.2c0.2,0.4,0.6,0.8,1,1.1
		c0.4,0.3,1.1,0.3,2.1,0c1.1-1.6,1.6-3.9,1.5-6.8c-1.6,0.3-3,0.7-4.2,1.2C141.6,298.2,140.8,299.1,140.3,300.4z M148.3,229.8
		c1-0.8,1.4-1.8,1.3-3c-0.1-1.2-0.9-2-2.5-2.3c-0.8,1-1.1,1.9-0.7,2.9C146.7,228.3,147.3,229.1,148.3,229.8z M153.6,156.5
		c0.3-1.3,0.2-2.2-0.5-2.8c-0.6-0.6-0.9-1.4-0.7-2.5c-1.1,0.2-2.3,0.2-3.4,0.1c-1.1-0.1-1.8,0.3-1.9,1.1c1.3-0.3,2.1-0.2,2.5,0.2
		c0.4,0.5,0.7,1.1,1,1.7c0.2,0.6,0.5,1.3,0.8,1.8C151.8,156.7,152.5,156.8,153.6,156.5z M148.3,358h13.5c-0.3-1.3-0.2-2.2,0.5-2.7
		c0.6-0.5,0.9-1.4,0.7-2.7c-2.7,1.3-4.9,1.9-6.4,1.7c-1.5-0.2-3.8-0.7-6.9-1.7c-0.3,0.8-0.7,1.5-1.2,2.2
		C148,355.5,148,356.5,148.3,358z M149.7,345.9c1,0.3,1.6,0.3,1.9,0c0.3-0.3,0.6-0.7,0.7-1.2c0.2-0.5,0.3-1,0.5-1.5
		c0.2-0.5,0.4-0.9,0.7-1.2C150.7,341.5,149.4,342.8,149.7,345.9z M157.7,368.6c1.6,1,2.8,1.3,3.5,0.8c0.7-0.4,1-0.8,1-1.3
		c-0.1-0.5-0.5-0.8-1.3-1C160.1,367,159,367.5,157.7,368.6z M158.9,192.5c6.8,0.5,9.9-2.7,9.4-9.4c-1.8-0.2-3.1,0-4.1,0.6
		c-1,0.6-1.8,1.3-2.4,2.3c-0.6,1-1.1,2.1-1.5,3.3C160.1,190.5,159.6,191.5,158.9,192.5z M158.9,379.3c0.5,2.7,1.5,4.9,3,6.4
		c1.5,1.5,3.3,2.9,5.2,4.2c0.5-3.5-0.3-6.4-2.3-8.7C162.8,379,160.9,378.3,158.9,379.3z M163.1,336.7c1,0.5,1.7,0.3,2.2-0.5
		c0.5-0.8,0.7-1.8,0.7-2.9c0-1.1-0.2-2.2-0.5-3.3c-0.3-1-0.7-1.6-1.2-1.6c0.2,1,0.2,1.8,0,2.4c-0.2,0.6-0.4,1.2-0.6,1.7
		c-0.2,0.5-0.5,1-0.7,1.6C162.7,334.7,162.7,335.6,163.1,336.7z M163.1,151.1c2.3,0.8,3.8,1.1,4.6,0.7c0.8-0.3,1.1-0.7,1-1.2
		c-0.2-0.5-0.8-0.8-1.8-1C165.7,149.5,164.5,150,163.1,151.1z M172.5,359.2c1.6,0,2.6-0.2,3-0.7c0.4-0.5,0.4-1.1,0.1-1.8
		c-0.3-0.7-0.8-1.5-1.5-2.2c-0.6-0.7-1.2-1.3-1.7-1.8c0,1.8-0.1,3-0.2,3.8c-0.2,0.7-0.4,1.3-0.7,1.6c-0.3,0.5-0.6,0.6-1,0.5l-1,2.2
		h-2.4v2.7h2.4c0-1,0.3-1.6,1-1.9c0.3-0.2,0.7-0.2,1.2,0L172.5,359.2z M168.4,173.6c0-0.6,0.2-1,0.7-1.2c0.5-0.2,1-0.3,1.5-0.5
		c0.5-0.2,0.9-0.4,1.3-0.6c0.4-0.2,0.6-0.8,0.6-1.6c-0.6-1-1.4-1.4-2.2-1.2c-0.8,0.2-1.5,0.6-2.1,1.2c-0.6,0.6-0.9,1.4-1,2.2
		C167.2,172.8,167.6,173.3,168.4,173.6z M172.5,327.3v-2.7c-0.6-1.1-1.3-1.6-1.9-1.3c-0.6,0.2-1.1,0.7-1.3,1.5
		c-0.2,0.7-0.2,1.4,0.2,2.1C169.9,327.4,170.9,327.6,172.5,327.3z M170.6,358.5c0.2,0.6,0.6,1.6,1.2,2.9L170.6,358.5z M243.1,351.2
		c12.4,1.5,23.8,1.1,34.1-1c10.3-2.1,19.5-5.5,27.5-10.2c8-4.7,14.9-10.4,20.7-17.3c5.8-6.9,10.5-14.4,14-22.7
		c3.5-8.3,6-17.1,7.3-26.4c1.3-9.3,1.5-18.6,0.5-27.9c-0.8-7.3-2.5-14.5-5.2-21.7c-2.7-7.2-6.1-13.9-10.4-20.1
		c-4.3-6.2-9.2-11.8-14.6-16.8c-5.5-5-11.4-9-17.7-12.1c-4.4-2.1-9.4-3.7-15.1-4.8c-5.7-1.1-11.5-1.9-17.4-2.4
		c-5.9-0.5-11.7-0.6-17.4-0.5c-5.7,0.2-10.8,0.5-15.4,1c-7.6,3.1-15,7.1-22.1,12c-7.2,4.9-13.6,10.7-19.4,17.4
		c-5.7,6.7-10.5,14.3-14.3,22.9c-3.8,8.5-6.2,17.9-7.1,28.1c-0.5,5.6-0.5,11.6-0.1,17.8c0.4,6.2,1.3,12.4,2.7,18.5
		c1.4,6.1,3.1,12,5.3,17.7c2.2,5.6,4.9,10.7,8.1,15.2c2.3,3.4,4.8,6.3,7.6,8.8c2.8,2.5,5.8,4.9,9,7.1c3.1,2.3,6.4,4.5,9.7,6.7
		c3.3,2.2,6.6,4.5,9.8,6.9c1.9-0.2,3.9,0,5.8,0.4c1.9,0.4,3.8,0.8,5.4,1.3c1.7,0.5,3.3,0.9,4.7,1.3
		C240.5,350.8,241.8,351.1,243.1,351.2z M172.5,380.7c2.3,1.3,3.8,3.3,4.6,5.9c0.8,2.7,0.2,5.1-1.9,7.4c1.9-0.6,3.7-0.7,5.2-0.2
		c1.5,0.5,2.9,1.1,4,1.9c1.1,0.8,2.1,1.5,3,2.1c0.9,0.6,1.7,0.6,2.5,0.1c0-1.1-0.3-2.2-0.8-3.3c-0.6-1-1.1-2.3-1.7-3.6
		c-0.6-1.4-1.1-2.9-1.5-4.5c-0.4-1.6-0.4-3.5-0.1-5.8c1.1,0.2,1.9-0.2,2.4-1c0.5-0.8,0.1-1.5-1.2-1.9c-0.8,2.1-1.9,3.4-3.1,4
		c-1.3,0.6-2.7,0.8-4.1,0.6c-1.5-0.2-2.9-0.5-4.2-1C174.1,381,173.1,380.7,172.5,380.7z M195.2,353.9h7.7c0.2-2.3-0.1-3.7-0.8-4.4
		c-0.7-0.6-1.6-0.8-2.5-0.6c-1,0.2-1.9,0.8-2.8,1.8C195.9,351.7,195.4,352.8,195.2,353.9z M196.4,147c1.8,0.3,3.3,0.4,4.7,0.1
		c1.4-0.2,2.7-0.5,4-0.7c1.3-0.2,2.5-0.4,3.6-0.4c1.1,0,2.3,0.3,3.6,1c-0.6-1.5-1.8-2.6-3.4-3.4c-1.6-0.8-3.3-1.3-5-1.5
		c-1.7-0.2-3.3,0.2-4.7,1C197.9,144,196.9,145.3,196.4,147z M208.3,105.7v-5.3h-3.9c0.3,1.3,0.6,2.6,0.8,3.9
		C205.5,105.5,206.5,106,208.3,105.7z M220.4,109.8c1.3-0.3,2.7-0.6,4.2-0.8c1.5-0.2,2.9-0.6,4.2-1c1.3-0.4,2.4-1,3.3-1.7
		c0.9-0.7,1.5-1.8,1.8-3.3c-3.6,1.5-6.3,1.7-8.3,0.8c-2-0.9-4.2-2.1-6.4-3.5c0,1.8,0,3.5-0.1,5.3C219,107.4,219.4,108.8,220.4,109.8
		z M229.8,396.7c0.2-1,0.5-1.8,1-2.4c0.5-0.6,0.6-1.6,0.2-2.9h-3.9C227.2,394,228,395.7,229.8,396.7z M229.8,426
		c2.4,0.5,4,1.8,4.7,4c0.7,2.2,0.9,4.9,0.6,8.1c2.1-0.3,3.5-1.5,4.4-3.5c0.8-2,1.1-4.3,1-6.8c-0.2-2.5-0.6-5-1.5-7.4
		c-0.8-2.4-1.7-4.1-2.7-5.1c0.2,1.4,0,2.7-0.5,3.6c-0.5,1-1.1,1.8-1.8,2.5c-0.7,0.7-1.5,1.4-2.3,2.1C231,424.2,230.3,425,229.8,426z
		 M243.1,96.2c1.1,1.1,2.1,1.7,2.8,1.6c0.7-0.1,1.5-0.4,2.2-0.8c0.7-0.5,1.5-1,2.4-1.5c0.9-0.5,2-0.6,3.3-0.5c0-1.8-0.5-2.9-1.6-3.5
		c-1.1-0.6-2.3-0.6-3.6-0.2c-1.4,0.4-2.6,1.1-3.8,1.9C243.7,94.1,243.1,95.1,243.1,96.2z M245.8,128.4c2.1,0.6,3.3,0.4,3.8-0.8
		c0.4-1.2,0.9-2.3,1.6-3.3c-1.8-0.2-3.1,0-4.1,0.6C246,125.5,245.6,126.6,245.8,128.4z M247,434h2.9v-2.7H247V434z M253.8,478
		c-1,0.3-1.7,0.3-2.1,0c-0.4-0.3-0.7-0.6-1-1c-0.2-0.3-0.5-0.7-0.8-1.1c-0.3-0.4-0.8-0.6-1.5-0.6c-0.5,1.3-0.5,2.4,0,3.3
		c0.5,0.9,1.1,1.5,1.9,1.9c0.8,0.4,1.7,0.5,2.7,0.4c1-0.2,1.7-0.6,2.2-1.5l1.2,0.5l1.5-0.5h3.9c0.5-1,0.5-1.7,0-2.2
		c-0.5-0.5-1.1-0.8-1.9-0.8c-0.8-0.1-1.6,0-2.3,0.2c-0.7,0.2-1.1,0.7-1.1,1.3l-1.2-0.5L253.8,478z M263.2,414.1
		c0.6,2.9,1.8,5.3,3.4,7.1c1.6,1.9,2.7,4.3,3.1,7.4c-1.3,1.5-2.3,3.1-2.9,5.1c-0.6,1.9-1.5,3.8-2.4,5.4c-1,1.7-2.3,3.1-3.9,4.2
		c-1.6,1.1-3.9,1.5-6.8,1.2c0.5,1.5,0.5,2.5,0,3c-0.5,0.6-1.1,1-1.7,1.3c-0.6,0.3-1.3,0.7-1.8,1.2c-0.6,0.5-0.7,1.4-0.4,2.7
		c1.3,0.5,2.3,1.3,3,2.4c0.7,1.1,1.4,2.3,2.1,3.6c0.6,1.3,1.4,2.5,2.2,3.5c0.8,1,1.9,1.8,3.4,2.3c0.2-1.6,0-2.9-0.5-3.9
		c-0.5-1-1.1-1.9-1.7-2.7c-0.6-0.8-1.2-1.7-1.7-2.7c-0.5-1-0.6-2.3-0.2-4.1c8.7-6.5,15.9-14,21.5-22.7c-0.2-1.6-0.7-2.8-1.6-3.5
		c-0.9-0.7-1.9-1.5-2.9-2.2c-1.1-0.7-2-1.5-2.8-2.4c-0.8-0.9-1.1-2.2-1-4c0.8-0.2,1.8-0.2,3,0s2.3,0.2,3.4,0.2c1,0,1.9-0.1,2.5-0.4
		c0.6-0.2,0.8-1,0.5-2.3c-2.1-0.8-4.8-1.1-8-1C268,413.3,265.3,413.6,263.2,414.1z M256.4,479.9c-0.5-0.8-0.9-1.6-1.2-2.4
		L256.4,479.9z M271.2,112.4c0.2-3.1,0.3-6,0.4-8.8c0.1-2.8-1.4-4.8-4.5-5.9c-0.8,2.3-0.9,5-0.2,8.1
		C267.5,108.9,268.9,111.1,271.2,112.4z M283.3,388.5c2.7,0.3,4.5-0.3,5.3-1.8c0.8-1.5,1.6-3.1,2.4-4.7c-1-0.2-1.7-0.6-2.2-1.3
		c-0.5-0.7-0.9-1.5-1.2-2.4c-0.3-0.9-0.7-1.7-1.1-2.5c-0.4-0.8-1.1-1.4-2.1-1.7c-0.8,1.9-1.2,4-1.1,6s-0.4,4.5-1.6,7.3l-1.9-0.7
		l-0.7,1.9c-0.5,0-1.2-0.2-2.2-0.5c-1-0.3-1.9-0.6-2.8-0.7c-0.9-0.2-1.7-0.1-2.3,0.1c-0.6,0.2-0.9,1.1-0.7,2.5
		c0.3,0.8,1,1.3,2.1,1.3s2.1,0.2,3,0.2c1,0.1,1.8,0.4,2.5,0.8c0.7,0.5,0.8,1.5,0.4,2.9c-0.3,1.1-0.9,1.9-1.8,2.3
		c-0.9,0.4-1.8,0.8-2.7,1.2c-0.9,0.4-1.6,1-2.2,1.8c-0.6,0.8-0.5,2.2,0.1,4.1c2.4-0.6,4.7-1.5,6.9-2.4c2.2-1,3.4-2.8,3.8-5.6
		c-0.2-0.6-0.4-1.2-0.8-1.6c-0.4-0.4-0.8-0.8-1.2-1.2c-0.4-0.4-0.7-0.9-1-1.5c-0.2-0.6-0.2-1.4,0.1-2.5l2.2,0.7L283.3,388.5z
		 M287.2,93.8c-1.3-1.3-2.6-2.4-3.9-3.4c-1.3-1-3.1-1.6-5.3-1.9c-0.2,1.3,0.1,2.2,0.7,2.8c0.6,0.6,1.4,1.1,2.2,1.5
		c0.8,0.4,1.6,0.8,2.3,1.2c0.7,0.4,1.2,1.2,1.3,2.3l-0.7,2.2l1.9-0.7c-0.5,1.6-0.4,2.6,0.4,2.9c0.7,0.3,1.6,0.6,2.7,0.7
		c1,0.2,2,0.4,2.8,0.6c0.8,0.2,1.1,1.1,1,2.5h-2.7v2.7h-2.7c-0.6,0.8-1,1.9-1.2,3.1c-0.2,1.3,0,2.5,0.4,3.5c0.4,1.1,1.1,1.9,2.1,2.4
		c1,0.6,2.3,0.6,4.1,0.1c0-1.6-0.4-2.8-1.1-3.6c-0.7-0.8-0.8-2.3-0.4-4.4l2.2,0.7l0.7-1.9c1.5-0.2,2.5,0,3.3,0.6
		c0.7,0.6,1.3,1.3,1.8,2.1c0.5,0.8,1,1.6,1.6,2.4c0.6,0.8,1.4,1.3,2.5,1.5c-0.5-1.9-0.4-3.3,0.4-4c0.7-0.7,1.7-1.2,2.8-1.6
		c1.1-0.3,2.3-0.6,3.5-0.7c1.2-0.2,2.1-0.7,2.8-1.7c-0.3-1-0.4-1.7-0.2-2.2c0.2-0.5,0.4-0.9,0.6-1.3c0.2-0.4,0.5-0.8,0.7-1.2
		c0.2-0.4,0.3-1,0.1-1.8c-1.9-0.6-3.9-1.5-5.9-2.7c-2-1.1-4.1-2-6.3-2.7c-2.2-0.6-4.4-1-6.5-1c-2.2,0-4.3,0.7-6.4,2.2l0.5-1.9
		L287.2,93.8z M282.6,390.7c-0.5-0.6-0.9-1.3-1.3-1.9c-0.4-0.6-0.8-1.4-1.3-2.2L282.6,390.7z M289.1,93.1c-0.8,0.8-1.7,1.7-2.5,2.7
		c-0.9,1-1.8,1.9-2.8,2.7L289.1,93.1z M293.2,109c-0.6-0.8-1.3-1.6-1.8-2.4c-0.6-0.8-1.1-1.5-1.6-2.2L293.2,109z M296.4,376.6
		c1.9,1.1,3.6,1.5,5,1c1.4-0.5,2.7-1.3,3.9-2.5s2.4-2.5,3.5-3.8c1.1-1.3,2.4-2.2,3.9-2.7C303.7,367.8,298.3,370.5,296.4,376.6z
		 M304.6,387.3c1.9,1.5,2.8,2.7,2.5,3.9c-0.2,1.1-0.9,2.2-1.9,3.1c-1.1,1-2.3,1.9-3.6,2.9c-1.4,1-2.1,2.1-2.3,3.4
		c1.8,1.3,3.4,2.6,4.8,4c1.5,1.4,2.9,2.8,4.4,4.2c1.5-0.2,2.5-0.6,3.1-1.5c0.6-0.8,1.2-1.7,1.6-2.8c0.4-1,0.8-2.1,1.3-3
		c0.5-1,1.2-1.7,2.2-2.2c-2.3-2.7-3.6-5.6-4-8.6c-0.4-3-0.9-5.9-1.6-8.8c0,1-0.3,1.7-1,2.1c-0.6,0.4-1.3,0.7-2.1,1
		c-0.7,0.2-1.5,0.5-2.2,0.8C305.2,386.1,304.7,386.6,304.6,387.3z M325.9,121.9v-5.6c-1.8-0.2-3.4,0.2-4.8,1.1
		c-1.5,0.9-2.8,1.7-4,2.5c-1.2,0.8-2.4,1.3-3.5,1.5c-1.1,0.2-2.3-0.6-3.6-2.4c0.2,2.3,0.6,3.6,1.3,4c0.7,0.4,1.6,0.5,2.7,0.2
		c1-0.2,2.2-0.6,3.4-1.1s2.3-0.6,3.3-0.2c2.1,0.5,4,1.3,5.8,2.5c1.8,1.2,3.5,2.4,5.2,3.6c1.7,1.2,3.5,2.3,5.4,3.1
		c1.9,0.9,4,1.3,6.3,1.3c-0.8-1.5-1.7-2.7-2.8-3.6c-1.1-1-1.9-1.9-2.7-2.9c-0.7-1-1.2-2-1.3-3c-0.2-1,0.3-2.4,1.5-4
		c0.3-0.8,0.1-1.1-0.7-1c-0.8,0.2-1.9,0.5-3.3,1.1c-1.4,0.6-2.8,1.2-4.4,1.8C328.1,121.5,326.8,121.9,325.9,121.9z M313.8,139
		c1,0.3,1.9,0.6,2.8,0.7c0.9,0.2,1.7,0.4,2.4,0.7c0.7,0.3,1.2,0.9,1.6,1.7c0.3,0.8,0.3,1.9,0,3.4c1.8,0.3,3.3,0.4,4.7,0.2
		c1.4-0.2,2.5-0.6,3.3-1.5c-0.5-1.6-1.3-3.1-2.4-4.6c-1.1-1.5-2.4-2.5-3.9-3.3c-1.5-0.7-2.9-0.9-4.5-0.6
		C316.2,136.2,314.9,137.3,313.8,139z M320.6,384.6v9.4c3.7,0.3,6.4,1.6,8.1,3.8c1.7,2.2,1.7,5.4-0.1,9.6c3.5,0.3,6.6,0,9.1-0.8
		c2.5-0.9,3.9-2.9,4.2-5.9c-1.9-0.2-3.6-0.8-4.8-2.1c-1.3-1.2-2.2-2.7-2.8-4.4c-0.6-1.7-0.9-3.5-1-5.4c-0.1-1.9,0.1-3.8,0.6-5.6
		c-1.5-0.2-2.7-0.1-3.8,0.1c-1.1,0.2-2,0.5-2.9,0.7c-0.9,0.2-1.9,0.5-2.9,0.7C323.3,385,322,384.9,320.6,384.6z M323.2,375.4h4.1
		v-4.1h-2.9c0,0.8-0.2,1.4-0.7,1.7C323.2,373.3,323.1,374.1,323.2,375.4z M329.7,168.3c1-0.5,1.4-1,1.3-1.5
		c-0.1-0.5-0.4-0.8-0.8-1.1c-0.5-0.2-1.1-0.3-1.7-0.1c-0.6,0.2-1,0.6-1.2,1.5c0.6,0,1.1,0.2,1.3,0.6
		C328.9,168.1,329.3,168.3,329.7,168.3z M331.2,366c0.3-1.3,0-2.1-1-2.3c-1-0.2-1.5,0-1.7,0.8c0.8,0.3,1.3,0.8,1.3,1.6
		c0.1,0.7,0.5,1.1,1.3,1.1l0.7,1.9l1.9-0.5c-0.3,1.1-0.2,1.8,0.2,2.1c0.5,0.2,1.1,0.4,1.9,0.5c0.8,0.1,1.7,0.2,2.5,0.2
		c0.9,0.1,1.6,0.4,2.1,1.1c0.5,0.8,0.6,1.5,0.4,2.1c-0.2,0.6-0.6,1.1-1,1.6c-0.4,0.5-0.6,0.8-0.7,1.1c-0.1,0.2,0.4,0.4,1.3,0.6
		c0.3-1.4,0.9-2.7,1.8-3.6c0.9-1,1.8-1.9,2.8-2.8c1-0.9,1.9-1.9,2.8-2.9c0.9-1,1.5-2.4,1.8-4c-1.3-1-2.5-1.3-3.6-1.1
		c-1.1,0.2-2.2,0.7-3.3,1.3c-1.1,0.6-2.2,1.3-3.5,1.9c-1.3,0.6-2.7,0.8-4.4,0.5l-1.5-1.9L331.2,366z M331.9,369.1
		c0.3-0.5,0.6-1,0.8-1.7c0.2-0.6,0.5-1.4,0.8-2.2L331.9,369.1z M332.7,144.4c0.8,0.2,1.4,0.5,1.7,1c0.3,0.5,1,0.6,2.2,0.2
		c-0.2-0.8-0.2-1.6-0.2-2.4c0-0.8-0.4-1.3-1.2-1.5c0,1-0.4,1.5-1.1,1.5S332.8,143.6,332.7,144.4z M335.1,177.8h4.1
		c0.2-2.3-1.2-3.1-4.1-2.7V177.8z M336.5,161.8c0.8,0,1.3,0.2,1.6,0.5c0.2,0.3,0.6,0.6,1.1,0.7c-0.2-1-0.3-1.9-0.4-2.9
		c-0.1-1-0.8-1.3-2.3-1V161.8z M336.5,358c2.6,0,4.5-0.6,5.7-1.8c1.2-1.2,2-2.9,2.3-5C340.8,351.9,338.1,354.1,336.5,358z
		 M357.8,361.9c4-0.3,5.8-2.5,5.3-6.5c-0.8-0.2-1.4-0.5-1.7-1c-0.3-0.5-1.1-0.6-2.2-0.5c-0.8,0.8-1.3,1.9-1.3,3.4
		C357.8,358.7,357.8,360.3,357.8,361.9z M364.6,271.1c0.2-2.7-1.1-4.1-3.9-4.1C360.2,270.1,361.5,271.5,364.6,271.1z M366,217.7
		c0.8,0.3,1.6,0.6,2.4,0.8c0.8,0.2,1.5,0.4,2.2,0.4c0.6,0,1.1-0.3,1.5-0.8c0.3-0.6,0.5-1.5,0.5-2.8C369.2,214.9,367,215.7,366,217.7
		z M375.2,233.9c0.2-0.8,0.5-1.1,1-0.8c0.5,0.2,1,0.5,1.7,0.8v-2.7c0-1.1-0.4-1.6-1.2-1.5c-0.3,0.8-0.7,1.1-1.1,1
		c-0.4-0.2-1-0.5-1.8-1c0.3,0.8,0.4,1.7,0.4,2.5C374.1,233.2,374.4,233.7,375.2,233.9z M382,252.5c-0.6-0.3-1.2-0.8-1.6-1.5
		c-0.4-0.6-0.8-1.3-1.1-1.9c-0.3-0.6-0.8-1.2-1.5-1.6c-0.6-0.4-1.5-0.5-2.7-0.4c0,0.8,0.2,1.7,0.7,2.7c0.5,1,1.1,1.8,1.8,2.4
		c0.7,0.6,1.5,1.1,2.3,1.2C380.9,253.6,381.5,253.3,382,252.5z M385.9,165.9c1,0.2,1.8,0.5,2.4,1c0.6,0.5,1.6,0.6,2.9,0.2V163
		C388.1,162.7,386.4,163.6,385.9,165.9z M411.3,227.1c-0.5-1.5-1-2.5-1.7-3c-0.6-0.6-1.5-0.9-2.4-1.1c-1-0.2-2.1-0.3-3.4-0.4
		c-1.3-0.1-2.7-0.4-4.4-0.8c-0.8-2.6-1.1-4.4-0.8-5.4c0.2-1,0-2.4-0.6-4c-4.4-0.2-7.4,0.5-9.1,2.1c-1.7,1.5-2.4,3.4-2.1,5.6
		c0.3,2.2,1.5,4.2,3.5,6.2c2,1.9,4.6,3.1,7.6,3.6c0.3-2.7,1-4.3,2.1-4.6c1-0.3,2.3-0.2,3.6,0.4c1.4,0.6,2.7,1.2,4.1,1.8
		C409.1,228,410.3,227.9,411.3,227.1z M394.1,239.2h3.9c-0.2-0.8-0.2-1.7-0.2-2.5c0-0.9-0.4-1.4-1.2-1.6c0,0.5-0.2,0.8-0.5,1.1
		c-0.3,0.2-0.7,0.4-1.1,0.6c-0.4,0.2-0.7,0.4-1,0.7C393.7,237.8,393.8,238.4,394.1,239.2z M395.3,303.3c0-0.5,0.2-1,0.7-1.5
		c0.5-0.5,0.9-1,1.3-1.5c0.4-0.5,0.6-0.9,0.6-1.3s-0.5-0.8-1.5-1.1c0,0.5-0.2,1-0.6,1.6c-0.4,0.6-0.8,1.1-1.1,1.6s-0.5,0.9-0.6,1.3
		C394.1,302.9,394.5,303.2,395.3,303.3z M401.8,323.2c-0.6-1.1-0.7-2-0.1-2.5c0.6-0.6,1.2-1,1.8-1.5c0.6-0.4,1-0.8,1.2-1.2
		c0.2-0.4-0.3-0.8-1.5-1.3c-0.5,0-1,0.5-1.5,1.6c-0.5,1.1-0.8,2.1-1.1,3c-0.2,1-0.3,1.7-0.2,2.3C400.6,324.1,401,324,401.8,323.2z
		 M406,264.6c0.3-1,0.3-1.7,0-2.1c-0.3-0.4-0.8-0.6-1.3-0.7c-0.6-0.1-1.2-0.1-1.9,0c-0.7,0.1-1.4,0-2.1-0.1
		c-0.5,3.2,1.3,4.6,5.3,4.1l-0.7,2.2l1.9-1c0.3,1,1.1,1.5,2.3,1.5s1.8-0.5,1.8-1.5c-0.6-0.3-1.3-0.6-1.8-0.8
		c-0.6-0.2-1.3-0.4-2.3-0.4l0.7-1.9L406,264.6z M404.8,256.4h2.4V254h-2.4V256.4z M405.2,268c0.5-0.8,0.9-1.5,1.3-2.2
		c0.4-0.6,0.8-1.3,1.3-1.9L405.2,268z M413.9,231.2c-0.3,1.9-0.2,3.1,0.4,3.5c0.6,0.4,1.1,0.4,1.6-0.1c0.5-0.5,0.7-1.1,0.6-1.8
		S415.6,231.5,413.9,231.2z"/>
</g>
</svg>
